# xmcd
#
# Track frame offsets:
#	150
#	17988
#	35683
#	53178
#	69420
#	83975
#	97815
#	112258
#	130898
#	145663
#	159610
#	173963
#	189033
#
# Disc length: 2721 seconds
#
# Revision: 0
# Processed by: cddbd v1.5.1PL2 Copyright (c) Steve Scherf et al.
# Submitted via: audiograbber 1.83.01
#
DISCID=ae0a9f0d
DTITLE=та йайа йояитсиа  - епибаккетаи дем амабаккетаи 
DYEAR=1996
DGENRE=екк POP
TTITLE0=епибаккетаи дем амабаккетаи
TTITLE1=гяхес паки  (о докожомос)
TTITLE2=апокоцоулаи
TTITLE3=о тяопос  (ORIGINAL VIDEO MIX)
TTITLE4=намацеммгхгйа
TTITLE5=то жики тоу иоуда
TTITLE6=жтаиеи г мувта
TTITLE7=се паяенгцгса
TTITLE8=сысе ле
TTITLE9=сам боубг таимиа
TTITLE10=асе тг жусг ма кеитоуяцгсеи
TTITLE11=епибиымы
TTITLE12=о тяопос  (DANCE MIX)
EXTD=
EXTT0=
EXTT1=
EXTT2=
EXTT3=
EXTT4=
EXTT5=
EXTT6=
EXTT7=
EXTT8=
EXTT9=
EXTT10=
EXTT11=
EXTT12=
PLAYORDER=
